<svg width="56" height="56" viewBox="0 0 56 56" fill="none" xmlns="http://www.w3.org/2000/svg">
<path d="M28.2734 5.25727C35.6901 5.25727 36.5684 5.28977 39.4852 5.41976C42.196 5.53891 43.6598 5.99386 44.6357 6.37298C45.926 6.87126 46.8585 7.47786 47.8235 8.44191C48.7994 9.4168 49.3958 10.3375 49.8946 11.6266C50.2741 12.6014 50.7295 14.0746 50.8488 16.7718C50.9789 19.6965 51.0114 20.5739 51.0114 27.9722C51.0114 35.3814 50.9789 36.2588 50.8488 39.1726C50.7295 41.8806 50.2741 43.343 49.8946 44.3179C49.3958 45.6069 48.7886 46.5384 47.8235 47.5025C46.8477 48.4774 45.926 49.0732 44.6357 49.5714C43.6598 49.9506 42.1851 50.4055 39.4852 50.5247C36.5576 50.6546 35.6793 50.6871 28.2734 50.6871C20.8568 50.6871 19.9785 50.6546 17.0617 50.5247C14.3509 50.4055 12.8871 49.9506 11.9112 49.5714C10.6209 49.0732 9.68839 48.4666 8.72336 47.5025C7.74748 46.5276 7.15111 45.6069 6.65233 44.3179C6.27282 43.343 5.81741 41.8698 5.69813 39.1726C5.56802 36.2479 5.53549 35.3705 5.53549 27.9722C5.53549 20.563 5.56802 19.6856 5.69813 16.7718C5.81741 14.0638 6.27282 12.6014 6.65233 11.6266C7.15111 10.3375 7.75832 9.40597 8.72336 8.44191C9.69923 7.46703 10.6209 6.87126 11.9112 6.37298C12.8871 5.99386 14.3618 5.53891 17.0617 5.41976C19.9785 5.28977 20.8568 5.25727 28.2734 5.25727ZM28.2734 0.263672C20.7375 0.263672 19.7942 0.296168 16.834 0.426154C13.8847 0.556139 11.857 1.03275 10.1004 1.71517C8.26795 2.43009 6.71738 3.37249 5.17767 4.92148C3.6271 6.45964 2.68375 8.00863 1.96811 9.82843C1.285 11.5941 0.8079 13.6088 0.677783 16.5552C0.547666 19.5232 0.515137 20.4656 0.515137 27.9939C0.515137 35.5222 0.547666 36.4646 0.677783 39.4217C0.8079 42.3681 1.285 44.3937 1.96811 46.1485C2.68375 47.9791 3.6271 49.5281 5.17767 51.0663C6.71738 52.6044 8.26795 53.5577 10.0896 54.2617C11.857 54.9442 13.8738 55.4208 16.8231 55.5508C19.7833 55.6807 20.7267 55.7132 28.2626 55.7132C35.7986 55.7132 36.7419 55.6807 39.7021 55.5508C42.6514 55.4208 44.679 54.9442 46.4356 54.2617C48.2573 53.5577 49.8078 52.6044 51.3475 51.0663C52.8873 49.5281 53.8415 47.9791 54.5463 46.1593C55.2294 44.3937 55.7065 42.3789 55.8366 39.4326C55.9667 36.4754 55.9992 35.533 55.9992 28.0047C55.9992 20.4764 55.9667 19.534 55.8366 16.5768C55.7065 13.6305 55.2294 11.6049 54.5463 9.85009C53.8631 8.00863 52.9198 6.45964 51.3692 4.92148C49.8295 3.38332 48.2789 2.43009 46.4573 1.72601C44.6899 1.04358 42.6731 0.566971 39.7237 0.436986C36.7527 0.296168 35.8094 0.263672 28.2734 0.263672Z" fill="black"/>
<path d="M28.2733 13.7485C20.4012 13.7485 14.0146 20.1286 14.0146 27.9928C14.0146 35.8569 20.4012 42.237 28.2733 42.237C36.1454 42.237 42.532 35.8569 42.532 27.9928C42.532 20.1286 36.1454 13.7485 28.2733 13.7485ZM28.2733 37.2326C23.1662 37.2326 19.0242 33.0947 19.0242 27.9928C19.0242 22.8908 23.1662 18.753 28.2733 18.753C33.3804 18.753 37.5225 22.8908 37.5225 27.9928C37.5225 33.0947 33.3804 37.2326 28.2733 37.2326Z" fill="black"/>
</svg>
