<svg width="55" height="46" viewBox="0 0 55 46" fill="none" xmlns="http://www.w3.org/2000/svg">
<path d="M17.1864 45.5247C37.6201 45.5247 48.7996 28.1857 48.7996 13.154C48.7996 12.6665 48.789 12.1683 48.7679 11.6808C50.9426 10.0704 52.8194 8.07565 54.31 5.79032C52.2846 6.71304 50.1342 7.31567 47.9322 7.57761C50.2507 6.15453 51.9867 3.91893 52.8184 1.28524C50.6372 2.60888 48.2519 3.54258 45.7646 4.04635C44.0887 2.22297 41.8729 1.01568 39.4597 0.611131C37.0466 0.206581 34.5704 0.627305 32.4142 1.80826C30.258 2.98921 28.5417 4.86461 27.5308 7.14451C26.5199 9.4244 26.2706 11.9818 26.8215 14.4213C22.4049 14.1944 18.0841 13.0196 14.1394 10.9731C10.1947 8.92659 6.71398 6.05407 3.92297 2.54177C2.50443 5.0461 2.07036 8.00953 2.70897 10.8298C3.34758 13.6501 5.01095 16.1155 7.36102 17.7251C5.59673 17.6678 3.87108 17.1814 2.32666 16.3061V16.4469C2.32508 19.075 3.21238 21.6226 4.83773 23.6566C6.46309 25.6906 8.72618 27.0854 11.2423 27.604C9.60798 28.0619 7.89266 28.1286 6.22911 27.799C6.93912 30.0592 8.32053 32.036 10.1806 33.4536C12.0406 34.8712 14.2864 35.6587 16.6046 35.7064C12.669 38.872 7.80734 40.589 2.8027 40.5809C1.91516 40.5795 1.0285 40.5238 0.147461 40.4141C5.23165 43.754 11.1459 45.5279 17.1864 45.5247Z" fill="black"/>
</svg>
